<?xml version="1.0" encoding="UTF-8" standalone="no"?>
<!-- Created with Inkscape (http://www.inkscape.org/) -->

<svg
   width="851.94141"
   height="308.6496"
   viewBox="0 0 225.40949 81.663539"
   version="1.1"
   id="svg27"
   xml:space="preserve"
   inkscape:version="1.2.2 (b0a8486541, 2022-12-01)"
   sodipodi:docname="careup_logo.svg"
   xmlns:inkscape="http://www.inkscape.org/namespaces/inkscape"
   xmlns:sodipodi="http://sodipodi.sourceforge.net/DTD/sodipodi-0.dtd"
   xmlns="http://www.w3.org/2000/svg"
   xmlns:svg="http://www.w3.org/2000/svg"><sodipodi:namedview
     id="namedview29"
     pagecolor="#505050"
     bordercolor="#eeeeee"
     borderopacity="1"
     inkscape:showpageshadow="0"
     inkscape:pageopacity="0"
     inkscape:pagecheckerboard="0"
     inkscape:deskcolor="#505050"
     inkscape:document-units="mm"
     showgrid="false"
     inkscape:zoom="0.84096521"
     inkscape:cx="451.86174"
     inkscape:cy="197.98679"
     inkscape:window-width="1920"
     inkscape:window-height="1012"
     inkscape:window-x="0"
     inkscape:window-y="0"
     inkscape:window-maximized="1"
     inkscape:current-layer="svg27" /><defs
     id="defs24"><filter
       inkscape:collect="always"
       style="color-interpolation-filters:sRGB"
       id="filter4386"
       x="-0.077027274"
       y="-0.21357276"
       width="1.1540545"
       height="1.4271455"><feGaussianBlur
         inkscape:collect="always"
         stdDeviation="6.0579478"
         id="feGaussianBlur4388" /></filter></defs><g
     inkscape:label="Layer 1"
     inkscape:groupmode="layer"
     id="layer1"
     transform="translate(-112.35096,-377.81819)"><rect
       style="opacity:0.309091;mix-blend-mode:normal;fill:#ffffff;fill-opacity:1;stroke:none;stroke-width:5.29367;stroke-linecap:round;stroke-linejoin:round;stroke-opacity:1;paint-order:fill markers stroke;filter:url(#filter4386);stop-color:#000000"
       id="rect4384"
       width="188.75229"
       height="68.075508"
       x="125.64567"
       y="384.61221"
       ry="27.073193"
       transform="matrix(1.0347934,0,0,0.84056069,-2.6214126,66.749257)"
       clip-path="none"
       inkscape:export-filename="..\..\care-up\Assets\WebGLTemplates\Better2020\logo.png"
       inkscape:export-xdpi="57.689999"
       inkscape:export-ydpi="57.689999" /><path
       style="fill:#65cbf7;fill-opacity:1;stroke:none;stroke-width:0.432207px;stroke-linecap:butt;stroke-linejoin:miter;stroke-opacity:1"
       d="m 135.64435,406.9748 c 3.65332,-8.46353 1.60516,-12.32585 8.00165,-17.6473 6.94564,-5.77832 16.22165,-0.254 25.73074,2.18155 9.6708,2.47695 17.83804,-1.18305 22.34537,4.19944 4.75489,5.67813 0.38749,12.44285 -0.25832,20.02052 -0.79977,9.38387 2.65961,13.6541 1.29164,17.30804 -1.83171,4.89259 -5.81243,3.65965 -9.42903,7.44849 -3.6166,3.78883 -3.20039,8.29851 -7.2332,9.60126 -4.36206,1.40909 -6.93183,-1.03334 -15.75808,-1.54999 -8.94177,-0.5234 -12.49871,1.12798 -18.03999,-2.41108 -4.6617,-2.97729 -3.87284,-9.0202 -6.45823,-12.7012 -2.91576,-4.15131 -7.08507,-6.99467 -7.19017,-12.18452 -0.0964,-4.76128 4.48011,-7.60576 6.99762,-14.26521 z"
       id="path27816"
       sodipodi:nodetypes="csssssssssssc" /><path
       id="path27818"
       style="fill:#ffffff;stroke:none;stroke-width:0.163355;stroke-linecap:round;stroke-linejoin:round;stroke-miterlimit:4;stroke-dasharray:none;paint-order:fill markers stroke;stop-color:#000000"
       d="m 158.45895,402.71215 c -0.83298,0 -1.50345,0.67131 -1.50345,1.5043 0,2.8476 1e-5,5.10517 0,8.01124 0,0.74529 -0.62217,1.23141 -1.24879,1.23141 h -7.99472 c -0.83297,0 -1.50342,0.67131 -1.50342,1.50429 v 7.83039 c 0,0.83297 0.67045,1.50344 1.50342,1.50344 h 8.00553 c 0.83285,0 1.23798,0.72143 1.23798,1.23043 v 8.01309 c 0,0.83297 0.67047,1.50344 1.50345,1.50344 h 7.83122 c 0.83298,0 1.50345,-0.67047 1.50345,-1.50344 v -8.00974 0 c 0,-0.7934 0.70105,-1.23378 1.21778,-1.23378 h 8.02573 c 0.83298,0 1.50345,-0.67047 1.50345,-1.50344 v -7.83039 c 0,-0.83298 -0.67047,-1.50429 -1.50345,-1.50429 h -7.96726 c -0.80861,0 -1.27625,-0.65939 -1.27625,-1.21755 v -8.0251 c 0,-0.83299 -0.67047,-1.5043 -1.50345,-1.5043 z"
       sodipodi:nodetypes="ssccssssccsssscccssssccsss" /><path
       id="path27820"
       style="fill:#65cbf7;fill-opacity:1;stroke:none;stroke-width:0.163355;stroke-linecap:round;stroke-linejoin:round;stroke-miterlimit:4;stroke-dasharray:none;paint-order:fill markers stroke;stop-color:#000000"
       d="m 159.9265,413.68028 c -0.41826,-0.025 -0.66689,0.27552 -0.66689,0.90155 v 0.53774 7.64888 0.53774 c 0,0.91059 0.52518,1.13334 1.33462,0.66602 2.5146,-1.42014 4.96594,-2.98172 7.44039,-4.45376 0.26077,-0.15518 0.38601,-0.36515 0.3824,-0.5715 0.006,-0.20829 -0.12106,-0.41771 -0.3824,-0.57739 -2.49901,-1.52524 -4.96417,-2.96403 -7.44039,-4.45376 -0.25295,-0.14605 -0.47762,-0.22419 -0.66773,-0.23552 z"
       sodipodi:nodetypes="ssccscscccs" /><circle
       style="fill:none;stroke:#ffffff;stroke-width:1.53369;stroke-linecap:round;stroke-linejoin:round;stroke-miterlimit:4;stroke-dasharray:none;paint-order:fill markers stroke;stop-color:#000000"
       id="circle27822"
       cx="162.37456"
       cy="418.87817"
       r="25.294495" /><rect
       style="fill:#65cbf7;fill-opacity:1;stroke:none;stroke-width:5.378;stroke-linecap:round;stroke-linejoin:round;paint-order:fill markers stroke;stop-color:#000000"
       id="rect408"
       width="113.1054"
       height="2.2023304"
       x="199.33702"
       y="430.71292"
       ry="0" /><path
       id="path907"
       style="color:#000000;opacity:1;fill:#373736;fill-opacity:1;stroke-width:0.675217;-inkscape-stroke:none"
       d="m 211.04941,406.23938 c -5.19973,-0.083 -10.23918,3.75009 -10.23918,10.5307 0,8.78979 11.02715,13.53484 17.39314,6.88285 0,0 -1.79313,-1.31794 -2.17958,-1.89237 -3.94142,3.92626 -11.71525,1.50559 -11.91628,-4.99048 -0.24039,-7.76812 8.14477,-9.03417 12.1337,-5.55793 l 1.97236,-1.93639 c -2.04759,-2.02137 -4.62476,-2.99581 -7.16416,-3.03638 z m 64.05181,0.56638 v 0.32049 11.94366 c 0.28799,5.41975 4.30302,7.61353 7.9705,7.58504 3.60901,-0.0281 7.72676,-3.0208 7.72676,-7.58504 v -12.26415 h -3.02295 v 11.60438 c -10e-4,3.2659 -2.10775,5.32249 -4.81923,5.29272 -3.4837,-0.0382 -4.90074,-2.46994 -4.94325,-5.23475 v -11.66235 z m 19.42992,0.0574 v 0.3205 18.93388 h 3.32629 v -4.78755 c 1.826,-0.007 3.24061,0.0602 4.83049,-0.0307 3.08399,-0.17632 6.44272,-2.66326 6.45929,-6.834 0.019,-4.79496 -3.17213,-7.56379 -7.70852,-7.60168 z m -53.72565,0.029 v 19.1964 h 2.92418 v -4.82836 c 3.1399,0.0951 5.34533,-0.007 5.34533,-0.007 0,0 1.29453,2.49395 2.64664,4.83586 h 3.14482 c -1.10427,-2.42352 -2.93384,-5.83976 -2.93384,-5.83976 0,0 3.43149,-1.6736 3.43149,-6.0121 0,-5.29566 -4.56196,-7.31645 -8.22818,-7.34453 z m -11.33756,0.0746 -2.28802,0.007 c 0,0 -5.90216,12.81354 -8.88045,19.1148 l 3.3542,-0.029 1.35069,-3.05624 h 10.92097 l 1.26265,3.12872 h 3.48841 z m 29.83874,0.12777 v 0.32049 18.50011 h 12.10634 v -2.76688 h -9.38454 v -5.28736 h 7.00632 v -2.76474 h -7.00632 v -5.23474 h 9.14725 v -2.76688 z m 38.34837,2.60207 h 3.93183 c 2.98016,0.0685 4.63455,1.89742 4.63455,4.37634 0,2.64431 -2.11471,4.3711 -4.63455,4.39566 h -3.93183 z m -53.92752,0.11542 h 3.88996 c 2.98548,0.0633 4.60433,1.98978 4.58839,4.26092 -0.0217,3.09396 -2.07537,4.27385 -4.58786,4.29688 h -3.89049 z m -15.38536,1.58744 4.10095,8.74785 -8.24912,0.0816 z"
       sodipodi:nodetypes="ssccsccscccsscccsccccccccssccccccccccscccccccccccccccccccccccccccscccccsccccccc" /></g></svg>
